<?xml version="1.0" encoding="utf-8"?>
<!-- Generator: Adobe Illustrator 24.2.3, SVG Export Plug-In . SVG Version: 6.00 Build 0)  -->
<svg version="1.1" id="Layer_1" xmlns="http://www.w3.org/2000/svg" xmlns:xlink="http://www.w3.org/1999/xlink" x="0px" y="0px"
	 viewBox="0 0 331.7 142.2" style="enable-background:new 0 0 331.7 142.2;" xml:space="preserve">
<style type="text/css">
	.st0{fill:#FFFFFF;}
</style>
<g id="Layer_2_1_">
	<g id="Layer_1-2">
		<g id="Logo">
			<path class="st0" d="M278.1,41.4c2.8-3.5,3.5-7.4,4.5-11.2c1.1-4.2,3.7-7,8.2-7.8c0.5-0.2,1.1-0.3,1.6-0.4c3.6-0.2,4.7-3.1,6-5.7
				c0.7-1.3,0.3-2.9-1-3.6c0,0-0.1,0-0.1-0.1c-1.2-1-1.6-2.7-0.7-4.1c0.4-0.6,0.6-1.3,0.8-1.9c0.4-3.7,1.8-6.9,6.9-6.7
				c4.5,0.2,7.1,2.5,7.3,6.8c0.1,0.8,0.3,1.6,0.6,2.4c0.5,1.4,0,3-1.3,3.9c-1.8,1.3-1.5,2.6-0.6,4.5c1.6,3.3,4.3,4.4,7.5,4.9
				c4.6,0.7,6.9,5,7.4,8.6c0.6,3.5,0.9,7.1,1.1,10.6c0.1,6.4-1,12.5-4.9,17.8c-1.8,2.4-3.7,5-4.4,7.8s-0.2,6.2,0.3,9.3
				c1.2,7.3,2.6,14.5,2.9,21.9c0.1,2,0.9,4,1.1,6c0.3,1.9,0.4,3.9,0.4,5.8c-0.1,2.6-0.5,5.1,2,7.1c0.6,0.5,0.7,2,0.6,3
				c-0.2,1.5,0,3,0.6,4.4c0.6,1.7,1,3.4,1.1,5.2c0.3,2.6,1,4.9,3.4,6.5c0.4,0.3,0.9,0.7,1.3,1.1c1,0.9,1.8,2.1,0.9,3.4
				c-0.5,0.6-1.7,0.9-2.6,1c-2.4,0.3-4.8-0.5-6.7-2c-1.3-0.8-2.7-1.4-4.2-1.8c-1.4-0.4-2.3-0.9-2.3-2.6c0-1-0.4-1.8-1.2-2.4
				c-4.1-2-5-5.7-5.6-9.6c-1.1-7.4-1.9-14.9-3.1-22.3c-0.8-5.2-2-10.3-3.1-15.4c-0.2-0.5-0.4-1.1-0.7-1.5l-0.8,0.1
				c-0.5,4-1,8.1-1.5,12.1c-0.3,1.7-0.4,3.3-0.4,5c0.1,2.4,0.5,4.9,0.7,7.3c0.3,2.9,0.4,5.7,0.4,8.6c-0.1,2.6,0.2,5.1,2.1,7
				c0.9,0.7,1.1,2,0.5,3c-2.2,3.6-4.3,7.3-6.8,10.7c-1.4,1.9-6.5,2.2-8.5,0.9c-1.1-0.5-1.5-1.8-0.9-2.9c0.1-0.2,0.2-0.3,0.3-0.5
				c0.8-1,1.6-2,2.6-2.9c1.6-1.4,2.2-3.6,1.5-5.6c-0.9-2.9-1.8-5.8-2.9-8.6c-1.3-3.4-1.4-6.8-1.2-10.3c0.2-4.4-0.1-8.9-0.3-13.3
				c-0.3-6-1-12.1-0.9-18.1c0.2-5.5-1-11-3.5-15.9c-2.2-4.2-3.9-8.7-3.3-13.6c0.1-1.2,0.3-2.3,0.7-3.4
				C280.3,42.8,280.3,41.8,278.1,41.4z M288.8,43c-4.3,3.4-4.5,11-1.8,15.9C289.4,54,288.6,48.6,288.8,43z M316.6,55.5
				c2.3-2.6,2.4-9.4,0-11.4V55.5z"/>
			<path class="st0" d="M106.6,23.3c0.2,0.5,0.4,1,0.6,1.5c1.6,5.1,2.1,10.4,1.4,15.7c0,0.6,0.2,1.1,0.6,1.6
				c0.6,0.9,0.1,3.5-0.7,4.1c-0.5,0.5-0.9,1.1-1,1.8c0,0.5,0.5,1.1,0.8,1.7c0.2,0.4,0.6,0.8,0.6,1.1c0,2.6,0,5.2-0.2,7.8
				c-0.1,0.8-0.6,1.5-1.3,1.8c-3.2,0.7-6.4,1.2-9.7,1.5c-0.5,0-1-1.4-1.8-2.5c-0.4,0.4-1.2,0.9-1.5,1.6c-1.9,3.9-4.3,5.5-8.3,5.4
				c-4.4-0.2-7.3-2.2-8.8-6.2c-3.6,0.4-7.3,0.8-11,1.1c-6,0.5-12.1,0.9-18.1,1.4c-0.8,0.1-1.5,0.5-2.1,1.1c-3.2,3.7-8.8,4.2-12.5,1
				c-0.3-0.3-0.7-0.6-0.9-0.9c-0.6-0.6-1.3-0.9-2.1-1c-2-0.1-4.1-0.1-6.1,0c-0.7,0-1.3,0.3-1.8,0.8c-3,3.8-11.6,3.9-14-0.6
				c-0.4-0.5-1.1-0.8-1.8-0.8C6,62.3,5.2,61.8,5,61c-0.8-3.2-1.6-6.4-2.3-9.4c0.4-0.4,0.5-0.5,0.6-0.5C6.1,51.3,8,50,9.9,48
				c2.9-2.9,9.1-2.5,12.7,0.3c1.5,1.2,2.9,2.2,4.9,2.2c2,0.1,4-0.6,5.5-2c3.5-3.2,9.9-3,13.2,0.2c1.3,1.3,3,1.9,4.8,1.8
				c6.6-0.1,13.2,0,19.8,0h1.6c0-4.5,0-8.8,0-13.1c0.1-5.6,0.1-11.1,0.2-16.7c0-1,0-2.1,1.3-2.6c0.3-0.1,0.4-0.9,0.4-1.4
				c0-2.8,0-5.7,0-8.5c0-1.2,0.2-2.3,0.3-3.4c3.7-1.3,7.2-0.8,10.7-0.1c2.1,0.4,4.1,0.6,6.2,0.6c3.7,0.1,6.6,1.6,8.4,4.8
				c1.1,2.1,1.9,4.3,2.9,6.4c0.3,0.6,0.6,1.5,1.1,1.6c1.9,0.5,1.9,2,2,3.7l-3.8-0.6c1,3.9,2,7.6,3,11.3c0.1,0.4,1,0.6,1.6,0.9
				c0.3-0.5,0.8-1,0.8-1.5c-0.3-2.2-0.8-4.4-1.2-6.5c-0.1-0.6-0.3-1.2-0.4-1.9L106.6,23.3z M88.1,20.7c0,3.1,0,6,0,8.8
				c0.1,0.6,0.5,1,1,1.3c2.7,0.8,5.3,1.4,8.2,2.2c0.2-4.2,0.4-8.2,0.7-12.2L88.1,20.7z M16.4,52.5c-3.3-0.2-5.9,2-6,5
				c-0.1,2.9,2.2,5.3,5,5.4c0.1,0,0.1,0,0.2,0c2.8,0.3,5.4-1.8,5.6-4.6c0-0.1,0-0.3,0-0.4c0.3-2.6-1.5-5-4.1-5.3
				C16.9,52.5,16.7,52.5,16.4,52.5z M81.8,57.7c-0.1,2.8,2.1,5.1,4.9,5.1c0.1,0,0.2,0,0.3,0c2.8,0.1,5.2-2.1,5.3-5
				c0-0.1,0-0.2,0-0.2c0.2-2.6-1.7-4.9-4.3-5.1c-0.2,0-0.5,0-0.7,0c-2.8-0.2-5.3,1.9-5.5,4.8C81.8,57.4,81.8,57.5,81.8,57.7z
				 M44.5,57.6c0.2-2.6-1.8-4.9-4.4-5.1c-0.2,0-0.4,0-0.6,0c-2.9-0.1-5.4,2.1-5.5,5l0,0c-0.1,2.8,2.1,5.2,4.9,5.3c0.1,0,0.2,0,0.3,0
				c2.9,0.1,5.2-2.2,5.3-5C44.5,57.7,44.5,57.7,44.5,57.6z M99.7,20.6L99.2,21v17.3h4.1c0.6-5.7-0.5-11.1-2.2-16.4
				C100.9,21.3,100.1,21,99.7,20.6z M22,50.4c-3.4-3-10.1-2.9-12,0.5C14.2,48.6,18.1,49.7,22,50.4z M45,50.4
				c-2.9-2.9-8.9-2.8-11.1,0C37.6,48.6,41.3,49.5,45,50.4L45,50.4z"/>
			<path class="st0" d="M179.1,114.8v-2.2c0-9.6,0-19.3,0-28.9c0-1.6,0.4-2.2,2.1-2.1c2.3,0.1,4.7,0.1,7,0c1.5-0.1,1.9,0.6,1.9,2
				c0,8.3,0,16.5,0,24.8v27.2c0,2.4,0,2.4-2.5,2.4s-4.7-0.1-7,0c-1.1,0.1-2.1-0.5-2.4-1.5c-5.2-9.5-10.4-19-15.7-28.5
				c-0.5-1-1.2-1.9-2-2.6c-0.1,0.7-0.1,1.3-0.1,2c0,9.5,0,19,0,28.5c0,1.6-0.5,2.2-2.1,2.1c-2.3-0.1-4.7-0.1-7,0
				c-1.6,0.1-2.1-0.4-2.1-2.1c0.1-11.4,0-22.8,0-34.3c0-6,0-12.1,0-18.1c0-1.4,0.4-2,1.9-1.9c2.6,0.1,5.3,0.1,8,0
				c1.1-0.1,2.1,0.5,2.4,1.5c5.3,10,10.7,20,16.1,30c0.3,0.6,0.7,1.2,1.1,1.8L179.1,114.8z"/>
			<path class="st0" d="M219.4,19.1L209.1,22c-1.5-1.8-2.9-3.5-4.4-5c-0.7-0.5-1.5-0.8-2.3-0.8c-3.7-0.1-7.4,0-11.1,0
				c-2.7,0.2-4.8,2.3-5,5c0,8.7,0,17.3,0,25.9c0,2.1,2,4.4,4.1,4.4c4.1,0.1,8.3,0.1,12.4,0c1.9,0,4.2-2.5,4.2-4.4c0-2.4,0-4.8,0-7.3
				h-12.8V29h24.3c0.5,11-1,22.2,2,33.2h-11.4l-0.6-1.4c-0.2,0-0.3,0-0.4,0.1c-2,1.4-4.4,2-6.8,1.8c-3.7-0.1-7.4,0-11.1,0
				c-3.3,0.1-6.6-1.1-9-3.4c-1-0.9-1.9-1.9-2.9-2.8c-2.3-2.2-3.6-5.3-3.5-8.5c0-9.4,0-18.9,0-28.3c-0.1-3,1.1-5.9,3.2-8
				c2.6-2.7,5.1-5.6,9.1-6.2c0.9-0.2,1.8-0.2,2.8-0.3c4.2,0,8.4,0.1,12.6,0C206.3,5,210,6.4,212.7,9C215.6,11.8,218,15.2,219.4,19.1
				z"/>
			<path class="st0" d="M126.2,5.6h36.9v10.9h-25.4v11.6h24.6v11h-24.6V51h25.4v11h-36.9C126.2,62,126.2,5.6,126.2,5.6z"/>
			<path class="st0" d="M266.9,28v11h-24.6v12h25.5v11h-37V5.6h37v10.8h-25.4V28H266.9z"/>
			<path class="st0" d="M50.8,109.8c0-8.7,0-17.4,0-26.1c0-1.5,0.4-2,2-2c11,0.1,22,0.1,33,0c1.5,0,1.9,0.5,1.9,1.9
				c-0.1,2.3-0.1,4.7,0,7c0.1,1.5-0.5,1.9-1.9,1.9c-7.2-0.1-14.4,0-21.7-0.1c-1.8,0-2.4,0.6-2.3,2.3c0.1,2.4,0,4.8,0,7.2
				s0.1,2.5,2.5,2.5h19.6c2.7,0,2.7,0,2.7,2.8c0,1.8-0.1,3.7,0,5.6c0.1,1.7-0.4,2.3-2.2,2.2c-6.8-0.1-13.7,0-20.6-0.1
				c-1.6,0-2.2,0.5-2.2,2.1c0.1,2.8,0.1,5.6,0,8.3c0,1.3,0.5,1.8,1.8,1.8c7.3-0.1,14.6,0,21.8-0.1c1.8,0,2.3,0.5,2.2,2.2
				c-0.1,2.3-0.1,4.6,0,6.9c0,1.2-0.3,1.8-1.6,1.8c-11.2,0-22.3,0-33.5,0c-1.6,0-1.6-0.8-1.6-2C50.9,127.3,50.9,118.5,50.8,109.8z"
				/>
			<path class="st0" d="M268.8,138c-4.4,0-8.4,0.1-12.4-0.1c-0.7-0.2-1.4-0.6-1.8-1.2c-4.8-6.6-9.6-13.3-14.4-19.9
				c-0.2-0.4-0.5-0.8-0.9-1.2c-0.5-0.3-1-0.6-1.5-0.8c-0.2,0.5-0.4,1-0.4,1.5c0,6.5-0.1,13,0,19.4c0,1.9-0.5,2.5-2.4,2.4
				c-2.4-0.2-4.8-0.1-7.2,0c-1.2,0-1.6-0.4-1.6-1.6c0-17.7,0-35.4,0-53.1c0-1.2,0.4-1.7,1.6-1.6c2.6,0.1,5.3,0.1,8,0
				c1.4-0.1,1.6,0.6,1.6,1.8c0,6.4,0,12.8,0,19.3c0.1,0.7,0.2,1.4,0.5,2c0.7-0.3,1.3-0.8,1.8-1.3c4.9-6.7,9.8-13.3,14.6-20
				c0.7-1.2,2.1-1.9,3.5-1.8c3.5,0.1,7,0,10.8,0L260,93.3c-3.7,4.9-7.4,9.9-11.1,14.8c-0.8,0.7-0.8,1.9-0.1,2.7c0,0,0,0,0.1,0.1
				c6.3,8.4,12.5,16.9,18.7,25.3C267.9,136.7,268.3,137.2,268.8,138z"/>
			<path class="st0" d="M141.9,81.7l-7.3,9.9c-4.1,5.5-8.2,11-12.3,16.4c-0.8,0.8-0.8,2.1,0,3l0,0c6.1,8.3,12.2,16.6,18.4,24.9
				l1.6,2.2c-2.3,0-4.2,0-6.2,0c-2.4,0-5.2,0.6-7.1-0.3s-3-3.6-4.4-5.5c-3.7-5.1-7.4-10.3-11.2-15.5c-0.2-0.4-0.5-0.7-0.8-1
				c-0.5-0.3-1-0.6-1.5-0.9c-0.2,0.5-0.4,1-0.5,1.5c0,2.6,0,5.2,0,7.8c0,4.1,0,8.2,0,12.2c0,1.4-0.4,1.9-1.8,1.8
				c-2.6-0.1-5.2-0.1-7.8,0c-1.2,0-1.6-0.4-1.6-1.6c0-17.7,0-35.4,0-53.1c0-1.2,0.3-1.7,1.6-1.7c2.7,0.1,5.3,0.1,8,0
				c1.3,0,1.7,0.5,1.7,1.8c-0.1,6.4-0.1,12.8,0,19.3c0.1,0.7,0.2,1.4,0.5,2c0.7-0.3,1.3-0.8,1.8-1.3c5-6.7,9.9-13.4,14.8-20.2
				c0.7-1.1,1.9-1.7,3.2-1.6C134.5,81.7,138,81.7,141.9,81.7z"/>
			<path class="st0" d="M26.5,115.3c0,6.9,0,13.8,0,20.7c0,1.6-0.5,2-2,2c-2.4-0.1-4.8-0.1-7.2,0c-1.7,0.1-2.1-0.5-2.1-2.1
				c0.1-11.5,0-23.1,0-34.6c0-2.3-0.1-4.6,0-6.8c0-1.5-0.4-2.1-2-2c-3.8,0.1-7.7,0-11.5,0C0.4,92.5,0,92,0,90.8
				c0.1-2.5,0.1-5.1,0-7.6c0-1.1,0.4-1.5,1.5-1.5c12.8,0,25.5,0,38.3,0c1.1,0,1.6,0.4,1.5,1.5c0,2.6,0,5.2,0,7.8
				c0,1.3-0.6,1.6-1.7,1.5c-3.8,0-7.7,0-11.5,0c-1.4,0-1.8,0.4-1.8,1.8C26.5,101.3,26.5,108.3,26.5,115.3z"/>
			<path class="st0" d="M202.4,109.9c0-8.6,0.1-17.3,0-25.9c0-1.9,0.6-2.4,2.4-2.3c2.4,0.2,4.8,0.1,7.2,0c1.2,0,1.6,0.4,1.6,1.6
				c0,17.7,0,35.4,0,53.1c0,1.3-0.5,1.7-1.8,1.7c-2.5-0.1-5.1-0.1-7.6,0c-1.5,0.1-1.9-0.4-1.9-1.9
				C202.4,127.4,202.4,118.6,202.4,109.9z"/>
		</g>
	</g>
</g>
</svg>
