<svg xmlns="http://www.w3.org/2000/svg" viewBox="0 0 331.73 142.24"><defs>
<style>.cls-1{fill:#000000;}.cls-2{fill:#fff;}</style>
</defs>
<title>Logo</title>
<g id="Layer_2" data-name="Layer 2">
<g id="Layer_1-2" data-name="Layer 1">
<g id="Logo">
<path class="cls-1" d="M278.07,41.43c2.79-3.51,3.51-7.4,4.49-11.22,1.09-4.23,3.68-7,8.17-7.81a13.29,13.29,0,0,1,1.61-.36c3.63-.16,4.71-3.13,6-5.66a2.64,2.64,0,0,0-1.15-3.66,3.17,3.17,0,0,1-.74-4.1,4.93,4.93,0,0,0,.76-1.95C297.61,3,299.06-.24,304.09,0c4.49.23,7.06,2.49,7.33,6.84A14.3,14.3,0,0,0,312,9.27a3.42,3.42,0,0,1-1.26,3.93c-1.76,1.28-1.53,2.58-.61,4.5,1.58,3.29,4.28,4.37,7.5,4.85,4.63.7,6.88,5,7.4,8.65a88.82,88.82,0,0,1,1.1,10.64c.13,6.39-1,12.47-4.92,17.84-1.77,2.41-3.74,5-4.39,7.82s-.19,6.22.32,9.27c1.2,7.29,2.58,14.53,2.85,21.94.07,2,.85,4,1.12,6a32.35,32.35,0,0,1,.37,5.81c-.13,2.62-.51,5.11,2,7.07.64.49.73,2,.65,3a8.33,8.33,0,0,0,.58,4.44,16.34,16.34,0,0,1,1.09,5.18c.27,2.64,1,4.93,3.35,6.48a9.37,9.37,0,0,1,1.25,1.11c1,.95,1.82,2.15.94,3.39-.46.65-1.7.89-2.63,1a9,9,0,0,1-6.71-2,12.6,12.6,0,0,0-4.16-1.75c-1.41-.39-2.27-.87-2.25-2.56a3.18,3.18,0,0,0-1.17-2.45c-4.06-2-5-5.74-5.63-9.62-1.11-7.41-1.9-14.88-3.07-22.29-.81-5.16-2-10.25-3.07-15.37a7.55,7.55,0,0,0-.7-1.54l-.79.06c-.51,4-1,8.09-1.52,12.14a30.83,30.83,0,0,0-.41,5c.11,2.45.55,4.87.73,7.31a85.31,85.31,0,0,1,.38,8.6c-.06,2.62.16,5.07,2.08,7a2.3,2.3,0,0,1,.52,3c-2.19,3.63-4.31,7.31-6.79,10.74-1.37,1.89-6.55,2.17-8.51.88A2.15,2.15,0,0,1,287,136a21.48,21.48,0,0,1,2.59-2.89,5.14,5.14,0,0,0,1.48-5.57c-.9-2.87-1.81-5.76-2.9-8.56-1.31-3.37-1.35-6.78-1.19-10.35.2-4.42-.06-8.86-.25-13.29-.27-6-1-12.05-.93-18.06a32.45,32.45,0,0,0-3.46-15.86c-2.24-4.23-3.86-8.7-3.28-13.64a15.84,15.84,0,0,1,.69-3.42C280.32,42.84,280.25,41.79,278.07,41.43ZM288.76,43c-4.3,3.4-4.46,11-1.83,15.93C289.41,54,288.56,48.63,288.76,43ZM316.6,55.49c2.32-2.6,2.36-9.43,0-11.39Z"/>
<path d="M106.59,23.28c.2.5.42,1,.57,1.51a37.62,37.62,0,0,1,1.43,15.71,2.54,2.54,0,0,0,.6,1.58c.63.86.09,3.47-.73,4.1a2.84,2.84,0,0,0-1,1.81c0,.53.54,1.11.85,1.66.2.38.58.76.58,1.14,0,2.59,0,5.19-.2,7.77a2.43,2.43,0,0,1-1.33,1.82,90.09,90.09,0,0,1-9.66,1.47c-.46,0-1-1.36-1.83-2.45-.4.4-1.18.87-1.51,1.56-1.91,3.92-4.3,5.51-8.33,5.35-4.44-.17-7.32-2.18-8.8-6.19-3.63.38-7.29.82-11,1.13-6,.51-12.06.91-18.08,1.44a3.42,3.42,0,0,0-2.09,1.07,8.9,8.9,0,0,1-13.49.1,3.23,3.23,0,0,0-2.1-1,53.8,53.8,0,0,0-6.09,0,2.68,2.68,0,0,0-1.79.82c-2.95,3.79-11.58,3.88-14-.62a2.28,2.28,0,0,0-1.78-.79A1.71,1.71,0,0,1,5,61c-.8-3.2-1.56-6.42-2.29-9.44.42-.37.52-.52.6-.51C6.06,51.25,8,50,9.93,48c2.85-2.9,9.14-2.54,12.71.27,1.47,1.15,2.85,2.15,4.93,2.15a7.36,7.36,0,0,0,5.45-2c3.45-3.16,9.87-3.05,13.24.16a6.29,6.29,0,0,0,4.8,1.83c6.61-.1,13.21,0,19.82,0h1.6c0-4.51,0-8.8,0-13.1q.08-8.34.21-16.66c0-1,0-2.12,1.32-2.56.27-.08.4-.94.4-1.44,0-2.84,0-5.68,0-8.52,0-1.16.22-2.31.34-3.4,3.65-1.31,7.15-.81,10.69-.14a40.48,40.48,0,0,0,6.23.64c3.68.14,6.6,1.57,8.37,4.85,1.11,2.05,1.94,4.26,2.93,6.38.27.6.59,1.5,1.06,1.63,1.92.53,1.94,2,2,3.71l-3.79-.63c1,3.89,2,7.62,3,11.3.13.43,1,.62,1.58.92.27-.49.81-1,.75-1.47-.31-2.19-.77-4.36-1.2-6.54-.12-.62-.28-1.23-.43-1.85ZM88.14,20.71c0,3.07,0,6,0,8.84a1.7,1.7,0,0,0,1,1.25c2.65.77,5.33,1.42,8.17,2.15.24-4.21.45-8.17.68-12.24ZM16.39,52.5c-3.32-.15-5.89,2-6,5a5.21,5.21,0,0,0,5.2,5.38,5.17,5.17,0,0,0,5.67-5.05A4.72,4.72,0,0,0,16.39,52.5Zm65.45,5.2A5,5,0,0,0,87,62.83a5.15,5.15,0,0,0,5.33-5.21,4.73,4.73,0,0,0-5-5.13A5.13,5.13,0,0,0,81.84,57.7Zm-37.31-.06a4.79,4.79,0,0,0-5.06-5.13A5.26,5.26,0,0,0,34,57.57a5.09,5.09,0,0,0,5.23,5.27A5.17,5.17,0,0,0,44.53,57.64ZM99.65,20.57l-.5.42V38.27h4.12c.57-5.74-.53-11.14-2.2-16.44C100.9,21.31,100.14,21,99.65,20.57ZM22,50.44c-3.4-3-10.09-2.88-12,.5C14.23,48.56,18.11,49.69,22,50.44Zm23,0c-2.89-2.9-8.87-2.85-11.1,0C37.59,48.57,41.28,49.5,45,50.46Z"/>
<path class="cls-1" d="M179.05,114.82v-2.17c0-9.63,0-19.26,0-28.88,0-1.59.38-2.23,2.07-2.13a65.94,65.94,0,0,0,7,0c1.53-.07,1.89.56,1.88,2,0,8.27,0,16.54,0,24.81v27.22c0,2.41,0,2.41-2.48,2.41s-4.69-.07-7,0a2.37,2.37,0,0,1-2.45-1.47q-7.8-14.3-15.67-28.53a9.17,9.17,0,0,0-2-2.64c-.05.67-.13,1.35-.13,2,0,9.51,0,19,0,28.52,0,1.62-.46,2.18-2.1,2.09a68.69,68.69,0,0,0-7,0c-1.62.09-2.11-.44-2.1-2.08.06-11.42,0-22.84,0-34.26,0-6,0-12.09,0-18.14,0-1.43.36-2,1.87-1.94,2.65.11,5.31.1,8,0a2.36,2.36,0,0,1,2.43,1.51q8,15,16.06,30c.34.62.72,1.22,1.08,1.83Z"/>
<path d="M219.36,19.1,209.07,22c-1.53-1.77-2.85-3.47-4.35-5a3.69,3.69,0,0,0-2.32-.83c-3.7-.08-7.41-.05-11.11,0a5.53,5.53,0,0,0-5,5q0,13,0,25.94c0,2.06,2,4.36,4.1,4.39q6.19.11,12.41,0c1.95,0,4.22-2.49,4.23-4.41,0-2.39,0-4.78,0-7.32H194.24V29h24.28c.5,11-1,22.19,2,33.18H209.08l-.57-1.37c-.19,0-.33,0-.42.06a10.68,10.68,0,0,1-6.83,1.79c-3.7-.12-7.41,0-11.11,0a12.71,12.71,0,0,1-9-3.37c-1-.92-1.94-1.9-2.93-2.83A11,11,0,0,1,174.71,48q0-14.17,0-28.34a10.91,10.91,0,0,1,3.22-8c2.63-2.71,5.1-5.61,9.13-6.24a18.14,18.14,0,0,1,2.75-.25c4.2,0,8.4.12,12.59,0A13.71,13.71,0,0,1,212.62,9,25.74,25.74,0,0,1,219.36,19.1Z"/>
<path d="M126.2,5.57h36.91V16.5H137.67V28.11h24.59v11H137.67V51h25.41V62H126.2Z"/>
<path d="M266.88,28.05v11h-24.6v12h25.46V62h-37V5.63H267.7v10.8H242.33V28.05Z"/>
<path class="cls-1" d="M50.85,109.78c0-8.7,0-17.41,0-26.11,0-1.5.39-2,2-2q16.49.09,33,0c1.51,0,1.94.5,1.88,1.93-.1,2.35-.11,4.7,0,7,.07,1.5-.48,1.9-1.92,1.88-7.22-.06-14.44,0-21.67-.06-1.83,0-2.37.61-2.29,2.34.1,2.41,0,4.82,0,7.22s.12,2.54,2.49,2.54H83.9c2.69,0,2.69,0,2.7,2.78,0,1.85-.09,3.71,0,5.55.1,1.65-.38,2.27-2.16,2.24-6.85-.1-13.7,0-20.56-.07-1.61,0-2.2.49-2.15,2.1.09,2.78.06,5.56,0,8.34,0,1.33.47,1.8,1.85,1.79,7.28-.06,14.57,0,21.85-.06,1.75,0,2.26.52,2.17,2.21-.14,2.28-.08,4.57,0,6.85,0,1.22-.27,1.79-1.64,1.78q-16.76-.06-33.52,0c-1.58,0-1.63-.81-1.62-2Q50.87,122.93,50.85,109.78Z"/>
<path class="cls-1" d="M268.82,138c-4.41,0-8.42.05-12.42-.06a2.93,2.93,0,0,1-1.83-1.23c-4.84-6.63-9.63-13.29-14.43-19.94a5.76,5.76,0,0,0-.88-1.18,9.35,9.35,0,0,0-1.49-.83,5.45,5.45,0,0,0-.44,1.48c0,6.48-.1,13,0,19.44,0,1.9-.53,2.48-2.4,2.36-2.4-.16-4.82-.09-7.22,0-1.21,0-1.61-.43-1.61-1.63q0-26.56,0-53.14c0-1.19.38-1.66,1.6-1.63,2.65.07,5.31.08,8,0,1.38-.05,1.65.57,1.64,1.78q-.06,9.63,0,19.26a8.71,8.71,0,0,0,.49,2,7.07,7.07,0,0,0,1.83-1.29q7.4-10,14.65-20a3.72,3.72,0,0,1,3.53-1.77c3.49.12,7,0,10.84,0L260,93.35c-3.69,4.94-7.36,9.9-11.11,14.8a1.88,1.88,0,0,0,0,2.72c6.26,8.41,12.46,16.86,18.68,25.31C267.94,136.66,268.26,137.18,268.82,138Z"/>
<path class="cls-1" d="M141.93,81.67l-7.33,9.88c-4.09,5.49-8.15,11-12.31,16.43a2.09,2.09,0,0,0,0,3c6.15,8.26,12.24,16.57,18.35,24.86l1.57,2.16c-2.31,0-4.24,0-6.18,0-2.4,0-5.17.64-7.09-.34s-3-3.6-4.44-5.54c-3.73-5.14-7.43-10.3-11.15-15.46a5,5,0,0,0-.78-1,11.85,11.85,0,0,0-1.47-.87,5.55,5.55,0,0,0-.46,1.47c0,2.59,0,5.18,0,7.77,0,4.08,0,8.15,0,12.22,0,1.37-.41,1.86-1.8,1.81-2.59-.08-5.19-.06-7.78,0-1.19,0-1.63-.38-1.63-1.6q0-26.58,0-53.14c0-1.17.34-1.69,1.58-1.66,2.65.07,5.31.08,8,0,1.35,0,1.67.52,1.67,1.76q-.08,9.63,0,19.25a9.23,9.23,0,0,0,.47,2,7.37,7.37,0,0,0,1.84-1.29q7.45-10,14.77-20.15a3.39,3.39,0,0,1,3.21-1.6C134.46,81.74,138,81.67,141.93,81.67Z"/>
<path class="cls-1" d="M26.47,115.35c0,6.91,0,13.82,0,20.73,0,1.56-.49,2-2,2-2.4-.11-4.81-.13-7.21,0-1.66.09-2.1-.52-2.09-2.12.05-11.54,0-23.07,0-34.61,0-2.28-.05-4.57,0-6.85,0-1.48-.44-2.08-2-2-3.82.09-7.65,0-11.47,0C.43,92.51,0,92.05,0,90.77c.06-2.53.05-5.06,0-7.59,0-1.09.41-1.53,1.53-1.52q19.16,0,38.32,0c1.11,0,1.56.4,1.54,1.51,0,2.59,0,5.18,0,7.77,0,1.27-.58,1.55-1.71,1.54-3.83,0-7.65,0-11.48,0-1.39,0-1.79.44-1.78,1.81C26.5,101.28,26.47,108.31,26.47,115.35Z"/>
<path class="cls-1" d="M202.42,109.88c0-8.64.06-17.27,0-25.91,0-1.93.59-2.45,2.42-2.34,2.4.16,4.81.09,7.22,0,1.21,0,1.61.42,1.61,1.62q0,26.55,0,53.11c0,1.32-.5,1.7-1.75,1.67-2.53-.07-5.07-.1-7.59,0-1.47.06-1.91-.44-1.9-1.91C202.45,127.4,202.42,118.64,202.42,109.88Z"/>
<path class="cls-2" d="M288.76,43c-.2,5.63.65,11-1.83,15.93C284.3,54,284.46,46.4,288.76,43Z"/>
<path class="cls-2" d="M316.6,55.49V44.1C319,46.06,318.92,52.89,316.6,55.49Z"/>
<path class="cls-2" d="M88.14,20.71H98c-.23,4.07-.44,8-.68,12.24-2.84-.73-5.52-1.38-8.17-2.15a1.7,1.7,0,0,1-1-1.25C88.1,26.67,88.14,23.78,88.14,20.71Z"/>
<path class="cls-2" d="M16.39,52.5a4.72,4.72,0,0,1,4.88,5.29,5.17,5.17,0,0,1-5.67,5.05,5.21,5.21,0,0,1-5.2-5.38C10.5,54.48,13.07,52.35,16.39,52.5Z"/>
<path class="cls-2" d="M81.84,57.7a5.13,5.13,0,0,1,5.47-5.21,4.73,4.73,0,0,1,5,5.13A5.15,5.15,0,0,1,87,62.83,5,5,0,0,1,81.84,57.7Z"/>
<path class="cls-2" d="M44.53,57.64a5.17,5.17,0,0,1-5.34,5.2A5.09,5.09,0,0,1,34,57.57a5.26,5.26,0,0,1,5.51-5.06A4.79,4.79,0,0,1,44.53,57.64Z"/>
<path class="cls-2" d="M99.65,20.57c.49.42,1.25.74,1.42,1.26,1.67,5.3,2.77,10.7,2.2,16.44H99.15V21Z"/>
<path class="cls-2" d="M22,50.44c-3.9-.75-7.78-1.88-12,.5C11.92,47.56,18.61,47.42,22,50.44Z"/>
<path class="cls-2" d="M45,50.46c-3.7-1-7.39-1.89-11.1,0C36.11,47.61,42.09,47.56,45,50.46Z"/></g></g></g></svg>