<?xml version="1.0" encoding="utf-8"?>
<!-- Generator: Adobe Illustrator 24.3.0, SVG Export Plug-In . SVG Version: 6.00 Build 0)  -->
<svg version="1.1" id="Layer_1" xmlns="http://www.w3.org/2000/svg" xmlns:xlink="http://www.w3.org/1999/xlink" x="0px" y="0px"
	 viewBox="0 0 216.3 116.8" style="enable-background:new 0 0 216.3 116.8;" xml:space="preserve">
<style type="text/css">
	.st0{enable-background:new    ;}
	.st1{fill:#FFFFFF;}
</style>
<g id="Layer_2_1_">
	<g id="Layer_1-2">
		<g class="st0">
			<path class="st1" d="M72.8,88.2v-27h6.8l6.3,11.2c0.9,1.6,1.6,3,2.3,4.4c0.7,1.4,1.1,2.3,1.3,2.9l0.3,0.9c-0.3-2-0.4-4.7-0.4-8.2
				V61.2h6.2v27h-6.8L82.2,77c-0.9-1.4-1.6-2.9-2.3-4.3c-0.7-1.4-1.1-2.4-1.3-3.1l-0.3-1c0.4,2.4,0.6,5.2,0.6,8.4v11.2H72.8z"/>
			<path class="st1" d="M99.6,74.6c0-4.1,1.2-7.5,3.6-10c2.4-2.5,5.6-3.8,9.5-3.8c4,0,7.2,1.3,9.6,3.8c2.4,2.5,3.6,5.9,3.6,10
				c0,4.1-1.2,7.5-3.6,10c-2.4,2.5-5.6,3.8-9.5,3.8c-4,0-7.2-1.3-9.6-3.8C100.8,82.1,99.6,78.8,99.6,74.6z M108,68.6
				c-1.2,1.5-1.8,3.5-1.8,6s0.6,4.5,1.8,6c1.2,1.5,2.8,2.2,4.8,2.2s3.6-0.7,4.8-2.2c1.2-1.5,1.8-3.5,1.8-6s-0.6-4.5-1.8-6
				c-1.2-1.5-2.8-2.2-4.8-2.2S109.2,67.1,108,68.6z"/>
			<path class="st1" d="M144,88.2l-5.8-9.4h-1.9v9.4h-6.2v-27h9.3c3,0,5.4,0.8,7.3,2.4c1.8,1.6,2.7,3.7,2.7,6.2c0,3.8-1.6,6.5-4.9,8
				l6.8,10.4H144z M136.2,66.2v7.6h2.9c2.7,0,4-1.3,4-3.9c0-1.1-0.3-2-1-2.7c-0.7-0.7-1.6-1-2.8-1H136.2z"/>
			<path class="st1" d="M154.6,61.2h9.3c4.1,0,7.4,1.2,10,3.7s3.9,5.6,3.9,9.3c0,4.3-1.3,7.7-3.8,10.2c-2.5,2.5-5.9,3.7-10.1,3.7
				h-9.2V61.2z M161,83.2h2.8c2.5,0,4.4-0.8,5.7-2.3c1.3-1.5,2-3.7,2-6.6c0-2.4-0.7-4.3-2-5.8c-1.4-1.5-3.3-2.2-5.8-2.2H161V83.2z"
				/>
			<path class="st1" d="M182.4,88.2v-27h6.2v27H182.4z"/>
			<path class="st1" d="M214,62.4v5.9c-2-1.2-4.2-1.8-6.7-1.8c-2.2,0-4,0.8-5.4,2.3c-1.5,1.5-2.2,3.5-2.2,6.1c0,2.5,0.7,4.4,2.2,5.9
				c1.5,1.5,3.4,2.2,5.7,2.2c2.5,0,4.7-0.6,6.4-1.9v6c-1.6,1-4,1.5-7,1.5c-3.9,0-7.2-1.3-9.9-3.8c-2.7-2.5-4-5.8-4-9.9
				c0-4.1,1.3-7.5,3.9-10c2.6-2.6,5.9-3.9,10.1-3.9C210.1,60.9,212.4,61.4,214,62.4z"/>
		</g>
		<g class="st0">
			<path class="st1" d="M83.2,90.2v1.4h-4.5v14.8h-1.5V91.6h-4.5v-1.4H83.2z"/>
			<path class="st1" d="M87,105h7.3v1.4h-8.8V90.2h8.6v1.4H87v6h6.3V99H87V105z"/>
			<path class="st1" d="M98.7,105h7.1v1.4h-8.6V90.2h1.5V105z"/>
			<path class="st1" d="M110.1,105h7.3v1.4h-8.8V90.2h8.6v1.4h-7.1v6h6.3V99h-6.3V105z"/>
			<path class="st1" d="M120.3,106.4l1.1-16.2h2l2.1,5.9l2.9,8.2c1.1-3,2.1-5.8,3-8.2l2.2-5.9h2l1.4,16.2h-1.5L135,100l-0.6-7.8
				c-1,2.7-1.9,5.3-2.9,7.8l-2.2,6h-1.8l-2.1-6l-2.7-7.7c-0.1,2.4-0.3,5-0.5,7.7l-0.5,6.4H120.3z"/>
			<path class="st1" d="M151.6,106.4l-1.5-4.5h-7.2l-1.6,4.5h-1.6l5.7-16.2h2.2l5.6,16.2H151.6z M143.4,100.6h6.3l-0.4-1l-2.7-8.1
				c-0.2,0.6-1.1,3.3-2.8,8.1L143.4,100.6z"/>
			<path class="st1" d="M164.9,90.2v1.4h-4.5v14.8h-1.5V91.6h-4.5v-1.4H164.9z"/>
			<path class="st1" d="M167.3,106.4V90.2h1.5v16.2H167.3z"/>
			<path class="st1" d="M184.2,90.9v1.6c-0.7-0.4-1.3-0.6-1.9-0.8c-0.5-0.2-1.3-0.2-2.3-0.2c-1.9,0-3.4,0.6-4.6,1.9
				c-1.2,1.3-1.9,2.9-1.9,4.9c0,2.1,0.6,3.8,1.8,5.1c1.2,1.3,2.9,1.9,4.9,1.9c1.6,0,2.9-0.4,4-1.2v1.6c-1,0.7-2.3,1-4,1
				c-2.4,0-4.4-0.7-5.9-2.2s-2.3-3.5-2.3-6.1c0-2.4,0.8-4.4,2.3-5.9c1.6-1.5,3.5-2.3,5.8-2.3C181.7,90,183.1,90.3,184.2,90.9z"/>
			<path class="st1" d="M195.4,90.8v1.7c-0.4-0.3-0.9-0.5-1.5-0.6s-1.2-0.3-1.8-0.3c-1.1,0-1.9,0.3-2.6,0.8s-1,1.2-1,2
				c0,0.4,0.1,0.8,0.3,1.2s0.5,0.6,0.9,0.9c0.4,0.3,0.7,0.5,1,0.6c0.3,0.2,0.7,0.4,1.4,0.6c0.6,0.2,1,0.4,1.3,0.6
				c0.3,0.1,0.7,0.3,1.1,0.6c0.4,0.3,0.8,0.6,1,0.9c0.2,0.3,0.4,0.6,0.6,1.1c0.2,0.4,0.3,0.9,0.3,1.5c0,1.4-0.5,2.5-1.4,3.2
				s-2.2,1.1-3.6,1.1c-1.7,0-3.1-0.4-4.2-1.1v-1.7c0.5,0.4,1.1,0.7,1.9,0.9s1.5,0.4,2.3,0.4c1.1,0,2-0.2,2.7-0.7s0.9-1.2,0.9-2.1
				c0-0.7-0.2-1.3-0.7-1.7c-0.5-0.4-1.2-0.9-2.1-1.3c-0.1-0.1-0.4-0.2-0.8-0.4c-0.4-0.2-0.7-0.3-0.9-0.4c-0.2-0.1-0.4-0.2-0.8-0.4
				c-0.4-0.2-0.6-0.4-0.8-0.5c-0.2-0.1-0.4-0.3-0.6-0.6s-0.4-0.5-0.6-0.7c-0.1-0.2-0.2-0.5-0.3-0.9c-0.1-0.3-0.1-0.7-0.1-1
				c0-1.4,0.5-2.4,1.5-3.2c1-0.8,2.2-1.1,3.6-1.1C193.4,90.1,194.5,90.3,195.4,90.8z"/>
		</g>
		<path class="st1" d="M33.4,28.2v22.3c-6.1,0-11.1,5-11.1,11.1l0,0v33.6c0,6.1-5,11.1-11.1,11.1S0,101.4,0,95.2V61.6
			C0,43.2,14.9,28.2,33.4,28.2L33.4,28.2z"/>
		<path class="st1" d="M66.8,61.6v33.6c0,6.1-5,11.1-11.1,11.1s-11.1-5-11.1-11.1V61.6H66.8z"/>
		<path class="st1" d="M69.8,58.6H47.5c0-6.1-5-11.1-11.1-11.1c0,0,0,0,0,0V25.2C54.8,25.2,69.8,40.2,69.8,58.6L69.8,58.6z"/>
		<path class="st1" d="M95,58.6H72.8c0-20.1-16.3-36.4-36.4-36.4l0,0V0C68.8,0,95,26.3,95,58.6z"/>
	</g>
</g>
</svg>
